<?xml version="1.0" standalone="no"?>
<svg width="215pt" height="215pt" viewBox="0 0 2150 2150" version="1.1" xmlns="http://www.w3.org/2000/svg">
  <!-- The mask is what makes the cutouts -->
  <mask id="cutouts">
    <!-- Everything under a white pixel will be visible -->
    <rect x="0" y="0" width="2150" height="2150" rx="60" fill="white" />

    <!-- Gauge cutout -->
    <circle cx="675" cy="530" r="103" fill="black" />
    <!-- Release valve cutout -->
    <circle cx="1470" cy="530" r="72" fill="black" />
    <!-- Valve assembly philips screw cutouts (bevel not accounted for, just the main cutout) -->
    <circle cx="1075" cy="435" r="40" fill="black" />
    <circle cx="590" cy="690" r="40" fill="black" />
    <circle cx="1560" cy="690" r="40" fill="black" />

    <!-- Selector handle/valve cutout -->
    <circle cx="675" cy="1625" r="148" fill="black" />
    <!-- Position locator hole or selector valve -->
    <circle cx="800" cy="1500" r="16" fill="black" />

    <!-- Pump handle cutout -->
    <circle cx="1470" cy="1626" r="167" fill="black" />
    <!-- Pump handle bolt cutouts -->
    <circle cx="1470" cy="1195" r="43" fill="black" />
    <circle cx="1750" cy="1795" r="43" fill="black" />
    <circle cx="1190" cy="1795" r="43" fill="black" />

    <!-- Cutouts for bolts around the perimiter, the bottom 4 are larger -->
    <circle cx="90" cy="90" r="35" fill="black" />
    <circle cx="745" cy="90" r="35" fill="black" />
    <circle cx="1400" cy="90" r="35" fill="black" />
    <circle cx="2055" cy="90" r="35" fill="black" />
    <circle cx="2055" cy="750" r="35" fill="black" />
    <circle cx="2055" cy="1400" r="35" fill="black" />
    <circle cx="2055" cy="2060" r="43" fill="black" />
    <circle cx="1400" cy="2060" r="43" fill="black" />
    <circle cx="745" cy="2060" r="43" fill="black" />
    <circle cx="90" cy="2060" r="43" fill="black" />
    <circle cx="90" cy="1400" r="35" fill="black" />
    <circle cx="90" cy="750" r="35" fill="black" />
  </mask>

  <!--
    Main panel is a rounded rect:
    Thickness: 3mm
    Width: 215mm
    Height: 215mm
    Corner radius: 6mm
  -->
  <rect y="0" x="0" width="2150" height="2150" rx="60" mask="url(#cutouts)" fill="black" />
</svg>